<svg id="Logo" xmlns="http://www.w3.org/2000/svg" viewBox="0 0 595.28 419.53">
  <title>BR_lang_weiß</title>
  <g>
    <path d="M202.56,194.49l-23.13-25.15H172l0,50.42h7.39Zm-9.88-.33-13.24,14.39v-28Z" fill="#0082c6"/>
    <g>
      <path d="M133.38,210.78c2,2.58,28.66,39.69,28.66,39.69H145.51s-20-29.36-23.45-33.9a24.77,24.77,0,0,0-8-7.19v-1.72a46.84,46.84,0,0,0,12.21-2.74c6.83-2.78,9.07-7.66,9.1-12.38a12.27,12.27,0,0,0-4.34-9.48c-2.82-2.21-5.55-3.37-11.8-3.71-2.22-.12-4.47,0-6,.05a22,22,0,0,0-7.17-9.63v-.56s9.79-.35,13-.27c15.58.38,20.41,3.73,23.75,6.57a19.73,19.73,0,0,1,6.45,13.72c0,11-6.64,18.35-15.93,21.55" fill="#fff"/>
      <path d="M79.82,239.26H70.57V179.4c.12,0,4.15-.06,6.66-.06,10.33,0,16.06,5.33,16.22,12.64.1,4.44-1.22,8.7-5.76,11.83a24.29,24.29,0,0,1-8.88,3.32v1.93s7.16,1.07,10.79,2.76c6.77,3.15,8.78,8,8.83,14.38.08,10-9.62,13.05-18.62,13.05m16.54-32.5c6.35-3.74,10.42-9.25,10.42-17.45,0-8.78-5.22-20.37-27.1-20.37-10.59,0-22.35.4-22.35.4v81.25H76c23.74,0,36.29-8.73,36.29-25.23,0-9.83-6.18-16.33-15.93-18.59" fill="#fff"/>
      <path d="M275.69,175.78v37.38h4c3.82,0,8-.29,12.3-2.87a18.84,18.84,0,0,0,8.54-16.14,17.46,17.46,0,0,0-10.63-16.51c-4.19-1.85-5.79-1.85-10.43-1.85Zm4.48-6.41c4.79,0,11.26,0,18.07,5.16a24.78,24.78,0,0,1,9.81,20c0,12.75-9.13,19.46-12.28,21.38-6.21,3.76-11.4,3.88-16.64,3.88H268.42v-50.4Z" fill="#fff"/>
      <rect x="316.23" y="169.37" width="7.34" height="50.4" fill="#fff"/>
      <polygon points="410.04 175.71 394.06 175.71 394.06 219.77 386.73 219.77 386.73 175.71 371.06 175.71 371.06 169.37 410.04 169.37 410.04 175.71" fill="#fff"/>
      <polygon points="492.86 175.78 473.2 175.78 473.2 191.12 492.11 191.12 492.11 197.53 473.2 197.53 473.2 213.16 493.54 213.16 493.54 219.77 465.86 219.77 465.86 169.37 492.86 169.37 492.86 175.78" fill="#fff"/>
      <polygon points="517.48 194.73 517.11 194.28 537.52 169.37 528.25 169.37 511.75 189.47 509.05 192.82 509.05 169.37 501.71 169.37 501.71 219.77 509.05 219.77 509.05 195.83 512.47 199.99 528.73 219.77 537.94 219.77 517.48 194.73" fill="#fff"/>
      <polygon points="457.36 219.77 449.95 219.77 449.95 197.75 424.43 197.75 424.43 219.77 417.1 219.77 417.1 169.37 424.43 169.37 424.43 191.12 449.95 191.12 449.95 169.37 457.36 169.37 457.36 219.77" fill="#fff"/>
      <path d="M376.14,219.77h-6.83l-6.15-14.64H343.34l-5.82,14.64h-6.84l20-50.4h4.71Zm-15.72-21.13-7.52-18.21-7,18.21Z" fill="#fff"/>
      <polygon points="259.23 175.76 239.56 175.76 239.56 191.09 258.48 191.09 258.48 197.5 239.56 197.5 239.56 213.13 259.9 213.13 259.9 219.77 232.23 219.77 232.23 169.35 259.23 169.35 259.23 175.76" fill="#fff"/>
      <polygon points="222.73 169.36 215.34 169.36 197.44 188.9 202.58 194.47 215.35 180.52 215.35 219.77 222.74 219.77 222.73 169.36" fill="#fff"/>
    </g>
  </g>
</svg>
